<?xml version="1.0" encoding="UTF-8" standalone="no"?>

<svg
   xmlns:dc="http://purl.org/dc/elements/1.1/"
   xmlns:cc="http://creativecommons.org/ns#"
   xmlns:rdf="http://www.w3.org/1999/02/22-rdf-syntax-ns#"
   xmlns:svg="http://www.w3.org/2000/svg"
   xmlns="http://www.w3.org/2000/svg"
   version="1.1"
   viewBox="0 0 1280 576">
  <metadata>
    <rdf:RDF>
      <cc:Work
         rdf:about="">
        <dc:format>image/svg+xml</dc:format>
        <dc:type
           rdf:resource="http://purl.org/dc/dcmitype/StillImage" />
        <dc:title>RRPGE logo (with outline and text)</dc:title>
        <dc:date>2014-11-13</dc:date>
        <dc:creator>
          <cc:Agent>
            <dc:title>Sandor Zsuga (Jubatian)</dc:title>
          </cc:Agent>
        </dc:creator>
        <dc:rights>
          <cc:Agent>
            <dc:title>Sandor Zsuga (Jubatian)</dc:title>
          </cc:Agent>
        </dc:rights>
        <dc:description>The official logo of RRPGE (with text)</dc:description>
      </cc:Work>
    </rdf:RDF>
  </metadata>
  <g
     id="dragon_out"
     transform="translate(0,-112)">
    <path
       d="m 640,175 -3,9 -24,22 19,21 -3,21 -9,-12 -16,-2 -16,-22 7,31 14,6 4,16 -4,11 6,10 -10,20 -7,-3 -52,31 -96,-5 -49,-41 21,40 -356,0 20,7 149,11 64,38 -82,0 20,7 86,7 60,36 26,2 -34,-33 46,3 43,36 35,3 51,75 -22,-105 28,2 12,33 25,3 -3,11 30,101 -2,27 -27,10 -4,21 11,-11 15,-3 11,4 5,17 9,-17 10,-4 14,2 12,12 -4,-21 -25,-9 -5,-28 0,-79 13,9 -7,-19 1,-7 4,-3 1,16 7,22 8,-24 2,-14 5,3 1,7 -6,20 18,-18 2,-17 -5,-8 62,-5 -16,72 51,-75 154,-14 20,-7 -118,0 19,-17 187,-16 20,-7 -179,0 33,-29 277,-20 20,-7 -356,0 21,-40 -49,41 -94,5 -53,-27 -6,1 -12,-22 6,-10 -4,-11 4,-16 14,-6 7,-31 -16,22 -16,2 -9,12 -3,-21 19,-21 -24,-22 z m -321,177 42,3 35,29 -42,0 z m 198,14 22,1 6,17 -24,0 z m 223,1 25,-2 -4,17 66,-16 -13,18 -72,0 -13,32 24,-2 -2,9 -29,0 z m -277,22 11,17 -21,-2 z"
       style="fill:#000000" />
  </g>
  <g
     id="dragon"
     transform="translate(0,-100)">
    <path
       d="m 630,610 -3,-13 0,-9 5,-4 4,5 0,7 z m 34,-14 -16,-3 -8,3 -1,-8 5,-4 23,8 3,12 z m -73,8 3,-12 25,-9 5,4 -1,9 -10,-3 -17,4 z m 46,-19 -5,-5 -5,4 -5,-4 2,-25 13,0 4,26 z m -41,-133 5,-15 16,6 11,-7 5,16 4,98 -13,0 z m -91,-19 25,2 13,56 z m 232,58 13,-56 25,-2 z m -82,-23 0,-20 5,-8 5,8 -1,17 -5,20 z m 18,9 5,-13 -1,-10 -8,-6 7,-11 9,13 -1,14 z m -36,-11 -1,-17 9,-11 6,10 -7,6 -1,11 5,11 z m 30,-23 -7,-9 -7,9 -5,-10 9,-12 5,-1 11,13 z m -96,-9 -20,-58 24,0 16,60 z m 117,2 -1,-2 33,-18 34,0 3,-14 39,-3 -19,30 z m -57,-4 6,-39 9,5 7,-4 2,22 -17,22 z m -32,-1 -19,-60 6,-14 26,22 21,11 -8,43 -9,5 z m -96,-2 -19,-30 38,3 7,29 z m -37,-3 -38,-32 48,4 20,30 z m 338,-28 46,-3 -25,21 111,0 -152,12 z m -138,20 29,-27 11,26 -30,13 z m -282,1 -53,-32 36,3 33,30 z m 316,-32 11,-11 18,0 -12,36 -5,2 z m -36,28 -4,-2 -3,-21 20,-10 21,-17 4,13 z m -184,-21 -12,-18 78,0 8,23 z m 256,4 9,-22 67,0 -12,18 z m -413,-16 -10,-6 94,0 -39,-33 74,5 18,26 -12,17 z m 515,-34 74,-5 -39,33 171,0 -237,17 z m -220,27 11,-29 18,9 15,-7 10,30 -25,14 z m -382,1 71,0 9,5 z m 10,-41 65,4 36,33 -40,0 z m 220,37 -15,-23 60,4 4,19 z m 84,0 -7,-22 -96,-6 -15,-23 111,7 39,20 -9,24 z m 117,-26 7,-4 20,5 5,13 -22,16 z m 40,26 -6,-25 36,-19 67,-4 25,20 -92,6 -7,22 z m -121,-21 6,-12 24,-2 8,6 -11,30 z m 180,14 3,-12 61,-4 z m -144,-30 7,-21 14,8 11,-9 14,25 -22,11 z m -385,-5 -17,-10 164,0 50,23 z m 435,6 -7,-13 6,-13 14,12 12,21 z m 184,-16 336,0 -351,23 z m -168,-1 -15,-13 2,-4 6,-1 49,25 -29,15 z m -138,7 49,-28 7,3 2,4 -13,8 -11,29 z m 263,-3 18,-1 39,-35 -35,54 z m -415,-3 26,0 12,18 z m 193,14 7,-18 12,-8 11,15 -3,9 z m -503,-14 124,0 15,9 z m 522,-21 10,-26 7,17 -7,16 5,5 -2,7 z m 15,6 4,-10 11,13 11,-13 6,10 -15,12 z m 33,5 4,-4 -9,-16 7,-17 12,27 -9,19 z m -229,6 -19,-29 33,30 z m 204,-23 3,-2 -4,-5 -3,-16 3,-2 -1,-5 -13,-8 1,-4 21,-12 21,12 1,4 -13,8 -1,5 3,2 -3,16 -4,5 3,2 -7,7 z m -17,-29 3,-7 7,10 2,15 z m 36,18 2,-15 7,-10 3,7 z m -40,-49 -14,-5 -5,-18 9,15 16,3 9,15 -9,6 z m 41,10 9,-15 16,-3 9,-15 -5,18 -14,5 -6,16 z m -19,-4 6,-71 6,71 -6,-3 z m -16,-45 18,-18 -3,34 z m 29,16 -3,-34 18,18 z"
       style="fill:#ffffff" />
  </g>
  <g
     id="text_out"
     transform="translate(0,-112)">
    <path
       d="m 646,540 6,36 121,0 18,-27 0,-9 -22,0 -2,3 0,-3 z m 165,0 0,9 -18,27 66,0 12,-9 0,9 172,0 0,-9 18,-27 -130,0 0,9 -10,15 -12,0 16,-24 z m 264,0 0,9 -18,27 18,0 0,-9 2,-3 12,0 -8,12 52,0 2,-3 0,3 98,0 -6,-9 8,-12 0,6 4,0 14,-21 -28,0 -2,3 0,-3 -94,0 -2,3 0,-3 z m -200,3 0,6 -8,12 -4,3 0,-3 z m 72,0 0,6 -10,15 -4,0 z m 96,0 0,6 -2,3 z m -58,3 2,3 -12,18 -6,3 -4,0 -2,-3 8,-12 0,6 4,0 z m 20,0 -14,21 0,6 -4,-6 12,-18 z m -232,6 4,0 -8,12 -4,0 z m 120,0 4,0 -8,12 -4,0 z m 120,0 4,0 -8,12 -4,0 z m 120,0 4,0 -8,12 -4,0 z m 16,0 12,0 -8,12 -12,0 z m 56,0 12,0 -6,9 4,0 8,-6 -6,9 -20,0 z m -486,3 -6,9 -4,0 2,-3 z m 12,0 0,6 -2,3 -4,0 z m 228,0 -8,12 -6,3 6,-9 z m -290,9 2,0 0,3 -4,6 0,-6 z m 72,0 2,0 0,3 -4,6 0,-6 z m 72,0 2,0 0,3 -4,6 0,-6 z m 216,0 -2,9 0,-6 z m 72,0 2,0 0,3 -4,6 0,-6 z m -419,30 6,36 103,0 0,-9 18,-27 -38,0 -4,3 0,-3 -24,0 -12,9 0,-9 z m 141,0 0,9 -18,27 154,0 0,-9 18,-27 z m 40,3 0,6 -2,3 z m 72,0 0,6 -2,3 z m -14,3 -12,18 -4,0 10,-15 z m -24,6 4,0 -10,15 -6,3 z m -140,6 4,0 -10,15 0,-6 z m -28,6 4,0 -6,9 0,-6 z m 120,0 -2,9 0,-6 z m 72,0 -2,9 0,-6 z"
       style="fill:#000000" />
  </g>
  <g
     id="text"
     transform="translate(0,-112)">
    <path
       d="m 650,543 1,6 20,0 -4,6 -15,0 1,6 10,0 -4,6 -5,0 1,6 8,0 0,-6 4,-6 8,0 0,6 -4,6 8,0 0,-12 4,0 8,-12 0,-6 z m 45,0 0,6 -12,18 0,6 16,0 12,-6 -24,0 4,-6 16,0 4,-6 -16,0 4,-6 16,0 4,-6 z m 28,0 -8,12 8,-6 4,0 -12,18 -12,6 20,0 -4,-6 12,-18 4,0 0,6 4,-6 0,-6 z m 20,0 0,6 -12,18 -8,0 4,6 8,0 0,-6 4,-6 8,0 0,6 -4,6 8,0 0,-12 4,0 8,-12 0,-6 z m 28,0 -16,24 0,6 16,0 16,-24 0,-6 z m 44,0 0,6 -16,24 8,0 0,-6 4,-6 8,0 0,6 -4,6 8,0 0,-12 4,0 8,-12 0,-6 z m 24,0 0,6 -12,18 0,6 24,0 0,-6 -20,0 4,-6 16,0 4,-6 -16,0 4,-6 16,0 0,-6 z m 24,0 0,6 -8,12 0,12 4,0 16,-12 12,-18 -8,0 0,6 -8,12 -8,6 -4,0 0,-6 12,-18 z m 28,0 -16,24 0,6 16,0 16,-24 0,-6 z m 20,0 0,6 -16,24 24,0 0,-6 -16,0 16,-24 z m 24,0 0,6 -12,18 0,6 16,0 20,-30 -8,0 0,6 -12,18 -12,0 16,-24 z m 28,0 -8,12 8,-6 4,0 -12,18 -12,6 20,0 -4,-6 12,-18 4,0 0,6 8,-12 z m 24,0 4,6 -12,18 -12,6 20,0 -4,-6 12,-18 12,-6 z m 24,0 -16,24 0,6 16,0 16,-24 0,-6 z m 20,0 0,6 -16,24 8,0 0,-6 12,-19 -4,25 8,0 0,-6 16,-24 -8,0 0,6 -12,18 4,-24 z m 48,0 0,6 -16,24 8,0 0,-6 4,-6 16,0 8,-12 0,-6 z m 24,0 0,6 -16,24 8,0 0,-6 4,-6 8,0 0,6 -4,6 8,0 0,-12 4,0 8,-12 0,-6 z m 28,0 -16,24 0,6 16,0 16,-24 0,-6 z m 20,0 0,6 16,0 -12,18 -16,0 0,6 16,0 20,-30 z m 28,0 -20,30 24,0 0,-6 -16,0 4,-6 16,0 4,-6 -16,0 4,-6 16,0 4,-6 z m 24,0 -16,24 0,6 16,0 12,-6 -24,0 12,-18 16,0 0,-6 z m 24,0 -8,12 8,-6 4,0 -12,18 -12,6 20,0 -4,-6 12,-18 4,0 0,6 8,-12 z m -552,6 12,0 -4,6 -12,0 z m 72,0 12,0 -4,6 -12,0 z m 24,0 12,0 -12,18 -12,0 z m 48,0 12,0 -4,6 -12,0 z m 72,0 12,0 -12,18 -12,0 z m 120,0 12,0 -12,18 -12,0 z m 72,0 12,0 -4,6 -12,0 z m 24,0 12,0 -4,6 -12,0 z m 24,0 12,0 -12,18 -12,0 z m -445,48 1,6 20,0 -4,6 -15,0 1,6 10,0 -4,6 -5,0 1,6 20,0 12,-18 -12,0 -4,6 8,0 -4,6 -12,0 12,-18 16,0 0,-6 z m 57,0 -16,12 -12,18 8,0 0,-6 4,-6 12,0 -8,12 4,0 12,-18 0,-12 z m 12,0 0,6 -16,24 8,0 0,-6 12,-18 0,6 4,0 8,-6 -16,24 8,0 0,-6 16,-24 -4,0 -8,6 -4,0 0,-6 z m 28,0 -16,24 0,6 20,0 0,-6 -16,0 4,-6 16,0 4,-6 -16,0 4,-6 16,0 4,-6 z m 44,0 0,6 -16,24 20,0 4,-6 -16,0 4,-6 16,0 4,-6 -16,0 4,-6 16,0 0,-6 z m 24,0 0,6 -16,24 8,0 0,-6 12,-18 -4,24 8,0 0,-6 16,-24 -8,0 0,6 -12,18 4,-24 z m 28,0 -16,24 0,6 16,0 12,-18 -12,0 -4,6 8,0 -4,6 -12,0 12,-18 24,0 -4,-6 z m 24,0 4,6 -12,18 -12,6 20,0 -4,-6 12,-18 12,-6 z m 24,0 -16,24 -8,0 4,6 8,0 0,-6 12,-18 -4,24 8,0 0,-6 16,-24 -8,0 0,6 -12,18 4,-24 z m 24,0 -16,24 0,6 20,0 0,-6 -16,0 4,-6 16,0 4,-6 -16,0 4,-6 16,0 4,-6 z m -212,6 4,0 0,6 -12,0 z"
       style="fill:#ffffff" />
  </g>
</svg>
